<svg xmlns="http://www.w3.org/2000/svg" width="90.545" height="63.382" viewBox="0 0 90.545 63.382"><defs><style>.a{fill:#0588a0;}</style></defs><path class="a" d="M27.164,33.941A15.845,15.845,0,1,0,11.318,18.1,15.837,15.837,0,0,0,27.164,33.941Zm10.865,4.527H36.855a21.877,21.877,0,0,1-19.382,0H16.3A16.3,16.3,0,0,0,0,54.766v4.075a6.793,6.793,0,0,0,6.791,6.791H47.536a6.793,6.793,0,0,0,6.791-6.791V54.766A16.3,16.3,0,0,0,38.029,38.468Zm29.88-4.527A13.582,13.582,0,1,0,54.327,20.359,13.585,13.585,0,0,0,67.909,33.941ZM74.7,38.468h-.538a17.841,17.841,0,0,1-12.507,0h-.538a15.714,15.714,0,0,0-7.88,2.179,20.7,20.7,0,0,1,5.617,14.119V60.2c0,.311-.071.608-.085.905H83.754a6.793,6.793,0,0,0,6.791-6.791A15.837,15.837,0,0,0,74.7,38.468Z" transform="translate(0 -2.25)"/></svg>