<svg width="776" height="114" viewBox="0 0 776 114" fill="none" xmlns="http://www.w3.org/2000/svg">
<path d="M57 114C88.4802 114 114 88.4802 114 57C114 25.5198 88.4802 0 57 0C25.5198 0 0 25.5198 0 57C0 88.4802 25.5198 114 57 114Z" fill="#DD3714"/>
<path d="M46.417 66.558L47.284 66.141C44.8963 61.5101 43.6759 56.366 43.729 51.156C43.6098 47.323 44.7092 43.5509 46.869 40.382C48.969 37.429 50.691 35.539 55.125 34.662C59.559 33.785 63.782 35.362 64.606 36.874C65.43 38.386 61.524 38.534 59.053 42.004C57.3115 44.1864 55.9803 46.6666 55.124 49.324C54.2241 51.8377 53.6678 54.4614 53.47 57.124C53.296 60.897 53.803 63.124 54.661 67.018C55.607 70.818 56.392 72.469 57.561 74.182C56.198 75.122 54.7058 75.859 53.131 76.37C51.4268 76.8142 49.6685 77.0162 47.908 76.97C45.9541 76.9959 44.0221 76.5558 42.2721 75.6863C40.5222 74.8168 39.0045 73.5429 37.845 71.97C36.6298 70.2536 35.6805 68.3636 35.029 66.364C33.5214 61.5425 32.6935 56.5343 32.569 51.484H31.694C30.0166 59.0674 29.178 64.372 29.178 67.398C29.0491 69.8921 29.6173 72.3727 30.819 74.562C28.8754 76.1162 26.4712 76.9817 23.983 77.023C21.613 77.023 19.9176 76.3394 18.897 74.972C17.8763 73.6047 17.367 71.5634 17.369 68.848C17.369 66.132 20.569 47.734 20.814 45.742C21.059 43.75 17.916 39.89 17.916 39.89C21.9993 37.2654 25.6453 35.953 28.854 35.953C32.0626 35.953 34.4873 36.509 36.128 37.621C37.8134 38.7983 39.0314 40.5306 39.569 42.515C40.241 44.7403 40.7257 47.0179 41.018 49.324C41.328 51.712 41.875 54.583 42.659 57.937C43.446 61.292 44.995 63.86 46.417 66.558Z" fill="white"/>
<path d="M84.3901 64.2322L81.4029 58.5936C85.2098 55.871 88.6793 54.4548 91.8115 54.345C94.4342 54.2531 95.7972 55.6824 95.9006 58.6328C95.6713 61.2345 95.2605 63.8171 94.671 66.3616C93.9381 69.598 93.551 72.9031 93.5161 76.2213C93.4355 78.0262 94.0236 79.7973 95.1677 81.1955C93.3863 82.681 91.1694 83.5459 88.8526 83.6593C86.6308 83.7371 85.0299 83.0637 84.0498 81.6391C82.9322 79.7153 82.3721 77.5184 82.4322 75.2943C80.466 75.9495 78.4153 76.3161 76.3439 76.3828C71.3902 76.5564 67.3406 75.1666 64.1951 72.2134C61.0496 69.2602 59.3673 64.7978 59.1481 58.8262C59.0809 56.1473 59.5454 53.4817 60.5147 50.9835C61.5454 48.2516 63.028 45.7125 64.9006 43.4722C67.0028 41.0068 69.6103 39.0219 72.5464 37.6521C75.6383 36.121 79.0208 35.266 82.4688 35.1439C85.9107 35.0234 88.6283 35.5663 90.6217 36.7727C91.5528 37.2859 92.3311 38.0369 92.8773 38.949C93.4234 39.8612 93.7177 40.9019 93.7303 41.965C93.82 42.9534 93.6841 43.9492 93.3328 44.8774C92.9816 45.8056 92.4241 46.6419 91.7025 47.3233C90.3493 48.5995 88.574 49.3335 86.7146 49.3854C84.9366 49.4758 83.1646 49.1146 81.5637 48.3356C80.0237 47.5695 78.724 46.3946 77.8069 44.9394C75.5957 46.2697 73.8799 48.2862 72.9209 50.6819C71.6147 53.414 70.9881 56.4214 71.0945 59.4478C71.2004 62.4708 71.8716 64.7175 73.1081 66.1878C73.6398 66.8764 74.3287 67.4275 75.1172 67.7949C75.9058 68.1623 76.7709 68.3354 77.6401 68.2996C80.2261 68.2076 82.4761 66.8519 84.3901 64.2322Z" fill="white"/>
<path d="M191.6 35.16V87.96H176.32L159.92 59.4L155.92 51.56H155.84L156.16 61.32V87.96H144V35.16H159.28L175.68 63.72L179.68 71.56H179.76L179.44 61.8V35.16H191.6Z" fill="white"/>
<path d="M221.622 88.76C217.196 88.76 213.356 87.9333 210.103 86.28C206.903 84.6267 204.423 82.2533 202.663 79.16C200.903 76.0667 200.022 72.3333 200.022 67.96C200.022 63.5867 200.903 59.8533 202.663 56.76C204.423 53.6667 206.876 51.2933 210.022 49.64C213.222 47.9867 216.876 47.16 220.982 47.16C225.196 47.16 228.769 47.9867 231.702 49.64C234.689 51.24 236.956 53.48 238.502 56.36C240.049 59.1867 240.822 62.44 240.822 66.12C240.822 67.08 240.796 68.04 240.743 69C240.689 69.96 240.609 70.76 240.502 71.4H208.822V64.12H234.502L228.022 66.6C228.022 63.4 227.436 60.9467 226.262 59.24C225.142 57.5333 223.382 56.68 220.982 56.68C219.276 56.68 217.809 57.08 216.582 57.88C215.409 58.68 214.502 59.9333 213.862 61.64C213.276 63.3467 212.982 65.5333 212.982 68.2C212.982 70.8133 213.329 72.9467 214.022 74.6C214.716 76.2 215.702 77.3733 216.982 78.12C218.262 78.8133 219.809 79.16 221.622 79.16C223.649 79.16 225.249 78.76 226.422 77.96C227.649 77.16 228.556 76.04 229.142 74.6L240.022 78.2C239.276 80.4933 237.969 82.44 236.103 84.04C234.289 85.5867 232.102 86.76 229.542 87.56C227.036 88.36 224.396 88.76 221.622 88.76Z" fill="white"/>
<path d="M299.737 47.96H313.977L301.897 87.96H285.577L278.297 63.4L271.257 87.96H255.017L242.857 47.96H257.177L263.897 77.48L271.737 47.96H285.177L292.937 77.48L299.737 47.96Z" fill="white"/>
<path d="M335.856 88.76C331.856 88.76 328.122 88.12 324.656 86.84C321.242 85.5067 318.416 83.6133 316.176 81.16L322.576 73.64C323.909 75.3467 325.669 76.7867 327.856 77.96C330.096 79.08 332.576 79.64 335.296 79.64C336.949 79.64 338.309 79.4 339.376 78.92C340.442 78.44 340.976 77.6933 340.976 76.68C340.976 75.9333 340.709 75.3467 340.176 74.92C339.642 74.44 338.576 74.04 336.976 73.72L331.376 72.6C326.362 71.5867 322.789 70.0933 320.656 68.12C318.576 66.0933 317.536 63.4533 317.536 60.2C317.536 58.0133 318.202 55.9333 319.536 53.96C320.869 51.9333 322.922 50.3067 325.696 49.08C328.469 47.8 332.016 47.16 336.336 47.16C340.389 47.16 343.962 47.7467 347.056 48.92C350.149 50.0933 352.602 51.8 354.416 54.04L347.936 61.4C346.656 59.8 345.002 58.5467 342.976 57.64C340.949 56.7333 338.922 56.28 336.896 56.28C335.616 56.28 334.522 56.4133 333.616 56.68C332.762 56.8933 332.122 57.2133 331.696 57.64C331.269 58.0667 331.056 58.6 331.056 59.24C331.056 59.9333 331.376 60.5467 332.016 61.08C332.709 61.56 333.962 61.9867 335.776 62.36L343.056 63.8C347.162 64.5467 350.122 65.9067 351.936 67.88C353.749 69.8533 354.656 72.2267 354.656 75C354.656 77.6133 353.962 79.96 352.576 82.04C351.189 84.12 349.109 85.7733 346.336 87C343.562 88.1733 340.069 88.76 335.856 88.76Z" fill="white"/>
<path d="M375.152 31V74.36C375.152 76.12 375.445 77.3733 376.032 78.12C376.619 78.8667 377.605 79.24 378.992 79.24C379.792 79.24 380.459 79.1867 380.992 79.08C381.525 78.9733 382.165 78.8133 382.912 78.6L382.032 86.76C381.072 87.3467 379.819 87.8267 378.272 88.2C376.725 88.5733 375.205 88.76 373.712 88.76C369.445 88.76 366.352 87.7733 364.432 85.8C362.512 83.8267 361.552 80.6 361.552 76.12V31H375.152Z" fill="white"/>
<path d="M407.404 88.76C402.977 88.76 399.137 87.9333 395.884 86.28C392.684 84.6267 390.204 82.2533 388.444 79.16C386.684 76.0667 385.804 72.3333 385.804 67.96C385.804 63.5867 386.684 59.8533 388.444 56.76C390.204 53.6667 392.657 51.2933 395.804 49.64C399.004 47.9867 402.657 47.16 406.764 47.16C410.977 47.16 414.55 47.9867 417.484 49.64C420.47 51.24 422.737 53.48 424.284 56.36C425.83 59.1867 426.604 62.44 426.604 66.12C426.604 67.08 426.577 68.04 426.524 69C426.47 69.96 426.39 70.76 426.284 71.4H394.604V64.12H420.284L413.804 66.6C413.804 63.4 413.217 60.9467 412.044 59.24C410.924 57.5333 409.164 56.68 406.764 56.68C405.057 56.68 403.59 57.08 402.364 57.88C401.19 58.68 400.284 59.9333 399.644 61.64C399.057 63.3467 398.764 65.5333 398.764 68.2C398.764 70.8133 399.11 72.9467 399.804 74.6C400.497 76.2 401.484 77.3733 402.764 78.12C404.044 78.8133 405.59 79.16 407.404 79.16C409.43 79.16 411.03 78.76 412.204 77.96C413.43 77.16 414.337 76.04 414.924 74.6L425.804 78.2C425.057 80.4933 423.75 82.44 421.884 84.04C420.07 85.5867 417.884 86.76 415.324 87.56C412.817 88.36 410.177 88.76 407.404 88.76Z" fill="white"/>
<path d="M450.463 35.24V73.72C450.463 75.64 450.916 77.0267 451.823 77.88C452.783 78.68 454.09 79.08 455.743 79.08C457.023 79.08 458.116 78.9467 459.023 78.68C459.983 78.36 460.836 77.9067 461.583 77.32L463.023 85.72C461.69 86.68 460.01 87.4267 457.983 87.96C455.956 88.4933 453.876 88.76 451.743 88.76C448.703 88.76 446.063 88.3333 443.823 87.48C441.636 86.6267 439.93 85.2667 438.703 83.4C437.53 81.5333 436.916 79.0533 436.863 75.96V39L450.463 35.24ZM462.383 47.96V57.64H429.983V47.96H462.383Z" fill="white"/>
<path d="M482.416 35.24V73.72C482.416 75.64 482.87 77.0267 483.776 77.88C484.736 78.68 486.043 79.08 487.696 79.08C488.976 79.08 490.07 78.9467 490.976 78.68C491.936 78.36 492.79 77.9067 493.536 77.32L494.976 85.72C493.643 86.68 491.963 87.4267 489.936 87.96C487.91 88.4933 485.83 88.76 483.696 88.76C480.656 88.76 478.016 88.3333 475.776 87.48C473.59 86.6267 471.883 85.2667 470.656 83.4C469.483 81.5333 468.87 79.0533 468.816 75.96V39L482.416 35.24ZM494.336 47.96V57.64H461.936V47.96H494.336Z" fill="white"/>
<path d="M520.138 88.76C515.711 88.76 511.871 87.9333 508.618 86.28C505.418 84.6267 502.938 82.2533 501.178 79.16C499.418 76.0667 498.538 72.3333 498.538 67.96C498.538 63.5867 499.418 59.8533 501.178 56.76C502.938 53.6667 505.391 51.2933 508.538 49.64C511.738 47.9867 515.391 47.16 519.498 47.16C523.711 47.16 527.285 47.9867 530.218 49.64C533.205 51.24 535.471 53.48 537.018 56.36C538.565 59.1867 539.338 62.44 539.338 66.12C539.338 67.08 539.311 68.04 539.258 69C539.205 69.96 539.125 70.76 539.018 71.4H507.338V64.12H533.018L526.538 66.6C526.538 63.4 525.951 60.9467 524.778 59.24C523.658 57.5333 521.898 56.68 519.498 56.68C517.791 56.68 516.325 57.08 515.098 57.88C513.925 58.68 513.018 59.9333 512.378 61.64C511.791 63.3467 511.498 65.5333 511.498 68.2C511.498 70.8133 511.845 72.9467 512.538 74.6C513.231 76.2 514.218 77.3733 515.498 78.12C516.778 78.8133 518.325 79.16 520.138 79.16C522.165 79.16 523.765 78.76 524.938 77.96C526.165 77.16 527.071 76.04 527.658 74.6L538.538 78.2C537.791 80.4933 536.485 82.44 534.618 84.04C532.805 85.5867 530.618 86.76 528.058 87.56C525.551 88.36 522.911 88.76 520.138 88.76Z" fill="white"/>
<path d="M546.946 87.96V47.96H558.946L559.506 56.6C560.52 53.6133 562.013 51.2933 563.986 49.64C566.013 47.9867 568.573 47.16 571.666 47.16C572.68 47.16 573.533 47.24 574.226 47.4C574.973 47.56 575.56 47.7733 575.986 48.04L574.626 59.24C574.093 59.0267 573.4 58.8667 572.546 58.76C571.746 58.6 570.76 58.52 569.586 58.52C567.986 58.52 566.493 58.8667 565.106 59.56C563.72 60.2533 562.6 61.2933 561.746 62.68C560.946 64.0133 560.546 65.72 560.546 67.8V87.96H546.946Z" fill="white"/>
<path d="M625.84 88.76C621.147 88.76 616.96 87.72 613.28 85.64C609.653 83.56 606.827 80.4933 604.8 76.44C602.773 72.3867 601.76 67.4533 601.76 61.64C601.76 55.9333 602.827 51.0533 604.96 47C607.093 42.9467 610.133 39.8267 614.08 37.64C618.08 35.4533 622.773 34.36 628.16 34.36C634.133 34.36 638.96 35.4533 642.64 37.64C646.32 39.7733 649.173 43.1867 651.2 47.88L638.48 52.92C637.787 50.2 636.56 48.2267 634.8 47C633.04 45.7733 630.853 45.16 628.24 45.16C625.627 45.16 623.387 45.8 621.52 47.08C619.653 48.3067 618.24 50.1467 617.28 52.6C616.32 55 615.84 57.9867 615.84 61.56C615.84 65.2933 616.32 68.4133 617.28 70.92C618.293 73.4267 619.76 75.2933 621.68 76.52C623.653 77.6933 626.08 78.28 628.96 78.28C630.507 78.28 631.92 78.0933 633.2 77.72C634.48 77.3467 635.6 76.8133 636.56 76.12C637.52 75.3733 638.267 74.4667 638.8 73.4C639.333 72.28 639.6 70.9733 639.6 69.48V68.68H627.52V59.48H651.28V87.96H641.92L640.88 75.56L643.12 77.48C642 81.1067 639.973 83.9067 637.04 85.88C634.16 87.8 630.427 88.76 625.84 88.76Z" fill="white"/>
<path d="M674.292 31V74.36C674.292 76.12 674.586 77.3733 675.172 78.12C675.759 78.8667 676.746 79.24 678.132 79.24C678.932 79.24 679.599 79.1867 680.132 79.08C680.666 78.9733 681.306 78.8133 682.052 78.6L681.172 86.76C680.212 87.3467 678.959 87.8267 677.412 88.2C675.866 88.5733 674.346 88.76 672.852 88.76C668.586 88.76 665.492 87.7733 663.572 85.8C661.652 83.8267 660.692 80.6 660.692 76.12V31H674.292Z" fill="white"/>
<path d="M700.544 88.76C697.824 88.76 695.424 88.3067 693.344 87.4C691.318 86.44 689.718 84.92 688.544 82.84C687.371 80.76 686.784 78.04 686.784 74.68V47.96H700.384V71.48C700.384 74.04 700.891 75.8267 701.904 76.84C702.918 77.8533 704.358 78.36 706.224 78.36C707.184 78.36 708.091 78.2 708.944 77.88C709.798 77.5067 710.544 76.9733 711.184 76.28C711.824 75.5333 712.304 74.6 712.624 73.48C712.998 72.3067 713.184 70.9467 713.184 69.4V47.96H726.784V87.96H714.624L714.224 80.44C712.944 83.2667 711.158 85.3733 708.864 86.76C706.571 88.0933 703.798 88.76 700.544 88.76Z" fill="white"/>
<path d="M756.076 88.76C751.649 88.76 747.809 87.9333 744.556 86.28C741.356 84.6267 738.876 82.2533 737.116 79.16C735.356 76.0667 734.476 72.3333 734.476 67.96C734.476 63.5867 735.356 59.8533 737.116 56.76C738.876 53.6667 741.329 51.2933 744.476 49.64C747.676 47.9867 751.329 47.16 755.436 47.16C759.649 47.16 763.222 47.9867 766.156 49.64C769.142 51.24 771.409 53.48 772.956 56.36C774.502 59.1867 775.276 62.44 775.276 66.12C775.276 67.08 775.249 68.04 775.196 69C775.142 69.96 775.062 70.76 774.956 71.4H743.276V64.12H768.956L762.476 66.6C762.476 63.4 761.889 60.9467 760.716 59.24C759.596 57.5333 757.836 56.68 755.436 56.68C753.729 56.68 752.262 57.08 751.036 57.88C749.862 58.68 748.956 59.9333 748.316 61.64C747.729 63.3467 747.436 65.5333 747.436 68.2C747.436 70.8133 747.782 72.9467 748.476 74.6C749.169 76.2 750.156 77.3733 751.436 78.12C752.716 78.8133 754.262 79.16 756.076 79.16C758.102 79.16 759.702 78.76 760.876 77.96C762.102 77.16 763.009 76.04 763.596 74.6L774.476 78.2C773.729 80.4933 772.422 82.44 770.556 84.04C768.742 85.5867 766.556 86.76 763.996 87.56C761.489 88.36 758.849 88.76 756.076 88.76Z" fill="white"/>
</svg>
