<svg width="80" height="80" viewBox="0 0 80 80" fill="none" xmlns="http://www.w3.org/2000/svg">
<rect width="80" height="80" fill="white"/>
<path opacity="0.146" d="M30 80C46.5685 80 60 66.5685 60 50C60 33.4315 46.5685 20 30 20C13.4315 20 0 33.4315 0 50C0 66.5685 13.4315 80 30 80Z" fill="#0D566C"/>
<path d="M79.9992 17.1901C79.9978 19.7183 79.439 22.215 78.3625 24.5025C77.2861 26.79 75.7185 28.812 73.7714 30.4245C71.8243 32.037 69.5456 33.2004 67.0976 33.8317C64.6497 34.4631 62.0926 34.5469 59.6085 34.0772L57.2613 36.7151C57.0414 36.9625 56.7715 37.1604 56.4695 37.296C56.1676 37.4315 55.8403 37.5015 55.5093 37.5014H51.8742V41.4073C51.8742 42.0288 51.6273 42.6249 51.1879 43.0643C50.7484 43.5038 50.1524 43.7507 49.5309 43.7507H45.625V47.6566C45.625 48.2781 45.3781 48.8742 44.9386 49.3136C44.4992 49.7531 43.9031 50 43.2816 50H32.3434C31.7221 50 31.1263 49.7533 30.6869 49.3142C30.2475 48.875 30.0004 48.2794 30 47.6581V40.0358C30 39.7279 30.0606 39.4231 30.1784 39.1387C30.2962 38.8543 30.4688 38.5958 30.6865 38.3781L46.4879 22.5765C45.7082 20.2138 45.4506 17.7099 45.7331 15.2379C46.0155 12.7659 46.8312 10.3847 48.1239 8.25871C49.4165 6.13277 51.1553 4.3128 53.2201 2.92453C55.2848 1.53625 57.6263 0.612768 60.0829 0.217877C62.5394 -0.177015 65.0524 -0.0339017 67.4482 0.637329C69.844 1.30856 72.0655 2.49191 73.9593 4.10562C75.8531 5.71933 77.374 7.72494 78.417 9.98389C79.4599 12.2428 80 14.7013 80 17.1894L79.9992 17.1901ZM62.8117 12.5057C62.8117 13.4328 63.0867 14.3391 63.6017 15.1099C64.1168 15.8808 64.8489 16.4816 65.7054 16.8364C66.5619 17.1912 67.5044 17.284 68.4137 17.1031C69.323 16.9223 70.1582 16.4758 70.8138 15.8203C71.4694 15.1647 71.9158 14.3295 72.0967 13.4202C72.2775 12.5109 72.1847 11.5683 71.8299 10.7118C71.4751 9.85527 70.8743 9.12317 70.1035 8.60809C69.3326 8.09302 68.4263 7.8181 67.4992 7.8181C66.256 7.8181 65.0638 8.31196 64.1847 9.19105C63.3056 10.0701 62.8117 11.2624 62.8117 12.5057V12.5057Z" fill="#0D566C"/>
</svg>
