<svg width="80" height="80" viewBox="0 0 80 80" fill="none" xmlns="http://www.w3.org/2000/svg">
<rect width="80" height="80" fill="white"/>
<path opacity="0.146" d="M30 80C46.5685 80 60 66.5685 60 50C60 33.4315 46.5685 20 30 20C13.4315 20 0 33.4315 0 50C0 66.5685 13.4315 80 30 80Z" fill="#0D566C"/>
<path d="M77.0149 13H42.9851C41.3365 13 40 14.3365 40 15.9851V50.0149C40 51.6635 41.3365 53 42.9851 53H77.0149C78.6635 53 80 51.6635 80 50.0149V15.9851C80 14.3365 78.6635 13 77.0149 13Z" fill="#0D566C"/>
</svg>
