<svg width="73" height="76" viewBox="0 0 73 76" fill="none" xmlns="http://www.w3.org/2000/svg">
<path opacity="0.146" d="M32.5 76C50.4493 76 65 61.4493 65 43.5C65 25.5507 50.4493 11 32.5 11C14.5507 11 0 25.5507 0 43.5C0 61.4493 14.5507 76 32.5 76Z" fill="#0D566C"/>
<path d="M55.6771 11.8008L60.2861 16.5368L28.9711 48.6238L24.3711 43.8878L55.6771 11.8008Z" fill="#0D566C"/>
<path d="M58.185 0H53.5V8.611H58.185V0Z" fill="#0D566C"/>
<path d="M58.185 25.0703H53.5V33.6813H58.185V25.0703Z" fill="#0D566C"/>
<path d="M46.9157 14.1836H38.1777V18.8686H46.9147L46.9157 14.1836Z" fill="#0D566C"/>
<path d="M42.4062 6.56047L45.6602 3.23047L51.6243 9.34647L48.3822 12.6645L42.4062 6.56047Z" fill="#0D566C"/>
<path d="M59.7285 9.34647L65.6925 3.23047L68.9345 6.56047L62.9715 12.6645L59.7285 9.34647Z" fill="#0D566C"/>
<path d="M68.9345 27.0848L65.6925 30.4028L59.7285 24.3028L62.9715 20.9688L68.9345 27.0848Z" fill="#0D566C"/>
<path d="M73.0005 14.1836H64.7695V18.8686H73.0005V14.1836Z" fill="#0D566C"/>
</svg>
