<svg width="67" height="74" viewBox="0 0 67 74" fill="none" xmlns="http://www.w3.org/2000/svg">
<path opacity="0.146" d="M32.5 74C50.4493 74 65 59.4493 65 41.5C65 23.5507 50.4493 9 32.5 9C14.5507 9 0 23.5507 0 41.5C0 59.4493 14.5507 74 32.5 74Z" fill="#0D566C"/>
<path d="M35.341 17.159L31.958 20.542L42.833 31.417L67 7.25L63.617 3.867L42.833 24.529L35.341 17.159ZM62.167 38.667H28.333V4.833H52.5V0H28.333C27.0523 0.00369371 25.8252 0.51407 24.9196 1.41963C24.0141 2.3252 23.5037 3.55234 23.5 4.833V38.667C23.5037 39.9477 24.0141 41.1748 24.9196 42.0804C25.8252 42.9859 27.0523 43.4963 28.333 43.5H62.167C63.4477 43.4963 64.6748 42.9859 65.5804 42.0804C66.4859 41.1748 66.9963 39.9477 67 38.667V19.333H62.167V38.667Z" fill="#0D566C"/>
</svg>
