<svg width="80" height="80" viewBox="0 0 80 80" fill="none" xmlns="http://www.w3.org/2000/svg">
<rect width="80" height="80" fill="white"/>
<path opacity="0.146" d="M30 80C46.5685 80 60 66.5685 60 50C60 33.4315 46.5685 20 30 20C13.4315 20 0 33.4315 0 50C0 66.5685 13.4315 80 30 80Z" fill="#0D566C"/>
<path d="M42.1978 59.9487L35.8123 58.0815C35.6534 58.0353 35.5052 57.9579 35.376 57.8539C35.2469 57.7499 35.1394 57.6212 35.0596 57.4753C34.9799 57.3294 34.9294 57.169 34.9112 57.0034C34.893 56.8378 34.9074 56.6703 34.9535 56.5103L49.2428 6.9156C49.2887 6.75555 49.3655 6.60619 49.4687 6.47606C49.572 6.34593 49.6997 6.23758 49.8445 6.15722C49.9893 6.07685 50.1485 6.02605 50.3128 6.00771C50.4771 5.98936 50.6434 6.00385 50.8022 6.05032L57.1877 7.91753C57.3466 7.96378 57.4948 8.04113 57.624 8.14515C57.7531 8.24918 57.8606 8.37783 57.9404 8.52377C58.0201 8.6697 58.0706 8.83004 58.0888 8.99563C58.107 9.16121 58.0926 9.32879 58.0465 9.48877L43.7571 59.0835C43.7117 59.2438 43.6352 59.3935 43.5321 59.5239C43.429 59.6543 43.3012 59.7628 43.1563 59.8433C43.0113 59.9237 42.852 59.9744 42.6875 59.9925C42.523 60.0106 42.3565 59.9958 42.1978 59.9487V59.9487ZM30.2622 48.1145L34.8156 43.2204C34.9305 43.0969 35.0198 42.9514 35.0779 42.7925C35.1361 42.6337 35.1621 42.4646 35.1543 42.2955C35.1465 42.1263 35.1051 41.9605 35.0325 41.8077C34.96 41.655 34.8577 41.5185 34.7319 41.4063L25.247 32.9995L34.7342 24.5928C34.8612 24.4813 34.9644 24.3451 35.0378 24.1923C35.1111 24.0395 35.1529 23.8733 35.1607 23.7038C35.1685 23.5342 35.1422 23.3649 35.0833 23.2059C35.0243 23.0469 34.9341 22.9016 34.8179 22.7787L30.2646 17.8846C30.1513 17.7627 30.0151 17.6646 29.8641 17.5959C29.713 17.5272 29.5499 17.4893 29.3842 17.4844C29.2186 17.4795 29.0536 17.5076 28.8987 17.5671C28.7439 17.6267 28.6022 17.7165 28.482 17.8315L13.4006 32.071C13.2743 32.1887 13.1735 32.3315 13.1045 32.4903C13.0356 32.6492 13 32.8207 13 32.9941C13 33.1674 13.0356 33.3389 13.1045 33.4978C13.1735 33.6566 13.2743 33.7994 13.4006 33.9171L28.4843 48.1699C28.604 48.286 28.7454 48.3769 28.9004 48.4371C29.0553 48.4974 29.2207 48.5259 29.3867 48.521C29.5527 48.516 29.7161 48.4777 29.8672 48.4083C30.0184 48.3389 30.1543 48.2398 30.2669 48.1168L30.2622 48.1145ZM64.5134 48.1777L79.5994 33.9273C79.7257 33.8096 79.8265 33.6668 79.8955 33.5079C79.9644 33.3491 80 33.1776 80 33.0042C80 32.8308 79.9644 32.6593 79.8955 32.5005C79.8265 32.3416 79.7257 32.1989 79.5994 32.0812L64.5149 17.8213C64.2707 17.5919 63.9465 17.4688 63.6128 17.4787C63.2791 17.4887 62.9627 17.6309 62.7323 17.8744L58.179 22.7685C58.0636 22.8921 57.974 23.0379 57.9156 23.1971C57.8572 23.3563 57.8312 23.5257 57.8391 23.6952C57.8469 23.8647 57.8886 24.0309 57.9615 24.1839C58.0344 24.3369 58.1371 24.4736 58.2635 24.5858L67.7499 32.9995L58.2635 41.4055C58.1365 41.517 58.0332 41.6532 57.9599 41.806C57.8866 41.9588 57.8448 42.125 57.837 42.2945C57.8291 42.4641 57.8555 42.6334 57.9144 42.7924C57.9733 42.9514 58.0636 43.0967 58.1798 43.2196L62.7331 48.1137C62.8458 48.2362 62.9814 48.335 63.1321 48.4045C63.2828 48.474 63.4457 48.5129 63.6114 48.5187C63.777 48.5246 63.9422 48.4974 64.0974 48.4388C64.2526 48.3801 64.3947 48.2912 64.5157 48.177L64.5134 48.1777Z" fill="#0D566C"/>
</svg>
