<svg width="75" height="76" viewBox="0 0 75 76" fill="none" xmlns="http://www.w3.org/2000/svg">
<path opacity="0.146" d="M32.5 76C50.4493 76 65 61.4493 65 43.5C65 25.5507 50.4493 11 32.5 11C14.5507 11 0 25.5507 0 43.5C0 61.4493 14.5507 76 32.5 76Z" fill="#0D566C"/>
<path d="M71.4999 31.716C71.7207 30.5198 71.7207 29.2932 71.4999 28.097L73.6919 26.831C73.8142 26.761 73.9088 26.651 73.9598 26.5196C74.0107 26.3882 74.015 26.2432 73.9719 26.109C73.407 24.2933 72.4431 22.627 71.1509 21.232C71.0558 21.1283 70.9282 21.0601 70.7892 21.0384C70.6502 21.0168 70.508 21.0431 70.3859 21.113L68.1939 22.379C67.268 21.5895 66.2055 20.9761 65.0589 20.569V18.037C65.0579 17.897 65.0096 17.7614 64.9217 17.6525C64.8338 17.5435 64.7115 17.4675 64.5749 17.437C62.7233 17.0207 60.8024 17.0207 58.9509 17.437C58.8142 17.4675 58.692 17.5435 58.6041 17.6525C58.5162 17.7614 58.4678 17.897 58.4669 18.037V20.569C57.3202 20.9761 56.2577 21.5895 55.3319 22.379L53.1399 21.113C53.0177 21.0433 52.8755 21.0171 52.7365 21.0387C52.5976 21.0603 52.4701 21.1285 52.3749 21.232C51.0826 22.627 50.1188 24.2933 49.5539 26.109C49.5128 26.2433 49.518 26.3875 49.5688 26.5185C49.6196 26.6495 49.713 26.7595 49.8339 26.831L52.0309 28.1C51.81 29.2962 51.81 30.5228 52.0309 31.719L49.8309 32.982C49.7085 33.052 49.6139 33.162 49.563 33.2934C49.512 33.4248 49.5077 33.5698 49.5509 33.704C50.1177 35.5188 51.0813 37.1848 52.3719 38.581C52.467 38.6847 52.5945 38.753 52.7335 38.7746C52.8725 38.7962 53.0148 38.7699 53.1369 38.7L55.3309 37.434C56.2567 38.2235 57.3192 38.8369 58.4659 39.244V41.776C58.4668 41.916 58.5152 42.0516 58.6031 42.1605C58.691 42.2695 58.8132 42.3455 58.9499 42.376C60.8014 42.7923 62.7223 42.7923 64.5739 42.376C64.7105 42.3455 64.8328 42.2695 64.9207 42.1605C65.0086 42.0516 65.0569 41.916 65.0579 41.776V39.243C66.2045 38.8359 67.267 38.2225 68.1929 37.433L70.3869 38.7C70.509 38.7697 70.6512 38.7959 70.7902 38.7743C70.9291 38.7527 71.0567 38.6845 71.1519 38.581C72.4443 37.1848 73.4078 35.517 73.9719 33.7C74.013 33.5657 74.0077 33.4215 73.9569 33.2905C73.9061 33.1596 73.8128 33.0495 73.6919 32.978L71.4999 31.712V31.716ZM61.7719 34.027C60.9568 34.027 60.16 33.7853 59.4824 33.3325C58.8047 32.8797 58.2765 32.2361 57.9646 31.483C57.6526 30.73 57.571 29.9014 57.73 29.102C57.889 28.3026 58.2815 27.5683 58.8579 26.992C59.4342 26.4157 60.1685 26.0232 60.9679 25.8642C61.7673 25.7052 62.5959 25.7868 63.3489 26.0987C64.1019 26.4106 64.7455 26.9388 65.1983 27.6165C65.6512 28.2942 65.8929 29.091 65.8929 29.906C65.8918 30.9986 65.4573 32.0462 64.6847 32.8188C63.9121 33.5914 62.8645 34.0259 61.7719 34.027ZM38.6619 21.75C40.8127 21.75 42.9153 21.1122 44.7037 19.9172C46.4921 18.7223 47.8859 17.0238 48.709 15.0367C49.5322 13.0495 49.7475 10.8629 49.3279 8.7534C48.9083 6.64385 47.8725 4.70611 46.3516 3.18522C44.8307 1.66432 42.893 0.628579 40.7835 0.208965C38.6739 -0.210649 36.4873 0.00471199 34.5002 0.827815C32.513 1.65092 30.8146 3.04479 29.6196 4.83318C28.4247 6.62156 27.7869 8.72413 27.7869 10.875C27.7867 12.3032 28.0679 13.7174 28.6144 15.0368C29.1609 16.3563 29.9619 17.5552 30.9718 18.5651C31.9816 19.5749 33.1805 20.376 34.5 20.9225C35.8195 21.4689 37.2337 21.7501 38.6619 21.75ZM55.7559 40.994C55.5559 40.894 55.3649 40.773 55.1779 40.663L54.5069 41.054C53.8517 41.4344 53.0866 41.5802 52.3375 41.4675C51.5884 41.3548 50.9001 40.9903 50.3859 40.434C48.8218 38.7412 47.6551 36.7208 46.9709 34.52C46.7431 33.7964 46.7697 33.0166 47.0464 32.3102C47.3231 31.6038 47.8332 31.0134 48.4919 30.637L49.1629 30.246C49.1542 30.0253 49.1542 29.8043 49.1629 29.583L48.4919 29.192C47.8329 28.8162 47.3225 28.226 47.0457 27.5196C46.769 26.8133 46.7426 26.0335 46.9709 25.31C47.0469 25.064 47.1579 24.817 47.2429 24.571C46.9199 24.546 46.6059 24.471 46.2739 24.471H44.8559C42.9139 25.3665 40.8008 25.8303 38.6624 25.8303C36.5239 25.8303 34.4108 25.3665 32.4689 24.471H31.0499C28.0219 24.4718 25.1182 25.6749 22.977 27.8157C20.8357 29.9566 19.6322 32.8601 19.6309 35.888L19.6309 39.422C19.6311 40.5035 20.0609 41.5406 20.8256 42.3053C21.5903 43.07 22.6274 43.4997 23.7089 43.5H53.6149C54.4406 43.4992 55.2465 43.2474 55.9259 42.778C55.8181 42.4554 55.7608 42.1181 55.7559 41.778V40.994Z" fill="#0D566C"/>
</svg>
