<svg width="72" height="76" viewBox="0 0 72 76" fill="none" xmlns="http://www.w3.org/2000/svg">
<path opacity="0.146" d="M32.5 76C50.4493 76 65 61.4493 65 43.5C65 25.5507 50.4493 11 32.5 11C14.5507 11 0 25.5507 0 43.5C0 61.4493 14.5507 76 32.5 76Z" fill="#0D566C"/>
<path d="M43.51 5.432C47.113 5.43289 50.5693 6.8594 53.124 9.4L46.224 16.3H62.524V0L56.956 5.567C54.4619 3.07313 51.3228 1.32275 47.8902 0.511823C44.4576 -0.299101 40.867 -0.138549 37.5205 0.975501C34.174 2.08955 31.2037 4.11312 28.942 6.81964C26.6804 9.52617 25.2168 12.8088 24.715 16.3H30.198C30.8237 13.2314 32.4906 10.4733 34.9165 8.49274C37.3424 6.51219 40.3783 5.43091 43.51 5.432ZM58.827 30.254C60.6782 27.7454 61.873 24.8139 62.303 21.726H56.818C56.3249 24.1299 55.1906 26.3556 53.5352 28.1672C51.8799 29.9787 49.7652 31.3086 47.4154 32.016C45.0656 32.7233 42.5682 32.7816 40.1879 32.1848C37.8076 31.588 35.6332 30.3583 33.895 28.626L40.795 21.726H24.498V38.026L30.066 32.459C33.277 35.6722 37.5332 37.6281 42.0627 37.9719C46.5922 38.3158 51.0949 37.0247 54.754 34.333L67.953 47.5L71.998 43.453L58.826 30.253L58.827 30.254Z" fill="#0D566C"/>
</svg>
