<svg width="68" height="70" viewBox="0 0 68 70" fill="none" xmlns="http://www.w3.org/2000/svg">
<path opacity="0.146" d="M29.9401 69.2982C46.4756 69.2982 59.8802 55.8936 59.8802 39.3581C59.8802 22.8226 46.4756 9.41797 29.9401 9.41797C13.4046 9.41797 0 22.8226 0 39.3581C0 55.8936 13.4046 69.2982 29.9401 69.2982Z" fill="#E2346C"/>
<path d="M63.2421 16.6504H60.8616V11.8931C60.8616 8.73888 59.6086 5.71382 57.3782 3.48342C55.1478 1.25302 52.1227 0 48.9685 0C45.8142 0 42.7892 1.25302 40.5588 3.48342C38.3284 5.71382 37.0753 8.73888 37.0753 11.8931V16.6504H34.6967C33.4361 16.654 32.2282 17.1564 31.3368 18.0478C30.4455 18.9392 29.9431 20.1471 29.9395 21.4076V45.1939C29.9431 46.4545 30.4455 47.6624 31.3368 48.5538C32.2282 49.4452 33.4361 49.9475 34.6967 49.9512H63.2421C64.5027 49.9475 65.7106 49.4452 66.6019 48.5538C67.4933 47.6624 67.9957 46.4545 67.9993 45.1939V21.4076C67.9957 20.1471 67.4933 18.9392 66.6019 18.0478C65.7106 17.1564 64.5027 16.654 63.2421 16.6504V16.6504ZM48.9703 38.2994C48.0294 38.2994 47.1097 38.0204 46.3273 37.4977C45.545 36.9749 44.9353 36.2319 44.5752 35.3627C44.2151 34.4934 44.1209 33.5369 44.3045 32.6141C44.488 31.6912 44.9411 30.8436 45.6064 30.1783C46.2717 29.5129 47.1194 29.0599 48.0422 28.8763C48.965 28.6927 49.9216 28.787 50.7908 29.147C51.6601 29.5071 52.4031 30.1168 52.9258 30.8992C53.4486 31.6815 53.7276 32.6013 53.7276 33.5421C53.723 34.8024 53.2199 36.0097 52.3282 36.9003C51.4366 37.7909 50.2287 38.2926 48.9685 38.2957L48.9703 38.2994ZM56.3402 16.6504H41.5931V11.8931C41.5931 9.93743 42.37 8.06181 43.7529 6.67892C45.1358 5.29602 47.0114 4.51912 48.9671 4.51912C50.9228 4.51912 52.7984 5.29602 54.1813 6.67892C55.5642 8.06181 56.3411 9.93743 56.3411 11.8931L56.3402 16.6504Z" fill="#E2346C"/>
</svg>
