<svg width="68" height="68" viewBox="0 0 68 68" fill="none" xmlns="http://www.w3.org/2000/svg">
<path opacity="0.146" d="M32.5 68C50.4493 68 65 53.4493 65 35.5C65 17.5507 50.4493 3 32.5 3C14.5507 3 0 17.5507 0 35.5C0 53.4493 14.5507 68 32.5 68Z" fill="#0D566C"/>
<path d="M38.875 26.9246C39.8096 28.1739 41.0019 29.2076 42.3711 29.9556C43.7403 30.7036 45.2544 31.1485 46.8106 31.2599C48.3668 31.3713 49.9288 31.1468 51.3906 30.6015C52.8525 30.0562 54.1799 29.203 55.283 28.0996L61.811 21.5716C62.8285 20.5629 63.6368 19.3632 64.1894 18.0413C64.742 16.7194 65.0281 15.3014 65.0312 13.8687C65.0343 12.436 64.7545 11.0167 64.2077 9.69243C63.6609 8.36815 62.8579 7.1649 61.8448 6.15177C60.8317 5.13864 59.6285 4.33558 58.3043 3.78868C56.98 3.24178 55.5608 2.96182 54.1281 2.96487C52.6954 2.96792 51.2773 3.25391 49.9554 3.80644C48.6335 4.35897 47.4337 5.16714 46.425 6.18457L42.683 9.90757" stroke="#0D566C" stroke-width="5" stroke-linecap="round" stroke-linejoin="round"/>
<path d="M47.5802 22.5741C46.6457 21.3247 45.4533 20.291 44.0841 19.543C42.7149 18.795 41.2009 18.3502 39.6446 18.2387C38.0884 18.1273 36.5264 18.3518 35.0646 18.8971C33.6028 19.4424 32.2753 20.2957 31.1722 21.3991L24.6432 27.9271C23.6327 28.9374 22.831 30.1369 22.2839 31.457C21.7369 32.7772 21.4553 34.1921 21.4551 35.6211C21.4549 37.0501 21.7362 38.4652 22.2829 39.7855C22.8295 41.1058 23.6309 42.3055 24.6412 43.3161C25.6516 44.3266 26.8511 45.1283 28.1712 45.6754C29.4914 46.2224 30.9063 46.504 32.3353 46.5042C33.7643 46.5044 35.1794 46.2231 36.4997 45.6764C37.82 45.1298 39.0197 44.3284 40.0302 43.3181L43.7502 39.5961" stroke="#0D566C" stroke-width="5" stroke-linecap="round" stroke-linejoin="round"/>
</svg>
