<svg width="80" height="80" viewBox="0 0 80 80" fill="none" xmlns="http://www.w3.org/2000/svg">
<rect width="80" height="80" fill="white"/>
<path opacity="0.146" d="M30 80C46.5685 80 60 66.5685 60 50C60 33.4315 46.5685 20 30 20C13.4315 20 0 33.4315 0 50C0 66.5685 13.4315 80 30 80Z" fill="#0D566C"/>
<path d="M38.034 2.70706e-06C36.4443 0.000921136 34.8905 0.479072 33.5692 1.374C32.2478 2.26893 31.2182 3.54045 30.6105 5.02781C30.0028 6.51516 29.8443 8.15156 30.1551 9.73011C30.4658 11.3087 31.2318 12.7585 32.3563 13.8963C33.4808 15.0341 34.9132 15.8087 36.4724 16.1223C38.0317 16.4359 39.6477 16.2744 41.1163 15.6581C42.5849 15.0418 43.84 13.9985 44.723 12.6601C45.606 11.3216 46.0773 9.74809 46.0771 8.13849C46.0777 7.06939 45.8702 6.01066 45.4663 5.02284C45.0625 4.03503 44.4703 3.13752 43.7235 2.38164C42.9768 1.62577 42.0903 1.02636 41.1146 0.617693C40.1389 0.209029 39.0932 -0.000869491 38.0373 2.70706e-06H38.034Z" fill="#0D566C"/>
<path d="M57.4148 2.70706e-06C55.8251 0.000921136 54.2714 0.479072 52.95 1.374C51.6287 2.26893 50.5991 3.54045 49.9914 5.02781C49.3837 6.51516 49.2252 8.15156 49.5359 9.73011C49.8467 11.3087 50.6127 12.7585 51.7372 13.8963C52.8616 15.0341 54.294 15.8087 55.8533 16.1223C57.4125 16.4359 59.0286 16.2744 60.4972 15.6581C61.9657 15.0418 63.2209 13.9985 64.1039 12.6601C64.9869 11.3216 65.4581 9.74809 65.458 8.13849C65.4586 7.06939 65.251 6.01066 64.8472 5.02284C64.4433 4.03503 63.8511 3.13752 63.1044 2.38164C62.3577 1.62577 61.4711 1.02636 60.4954 0.617693C59.5197 0.209029 58.474 -0.000869491 57.4181 2.70706e-06H57.4148Z" fill="#0D566C"/>
<path d="M57.4148 20.2461C55.8251 20.247 54.2714 20.7252 52.95 21.6201C51.6287 22.515 50.5991 23.7865 49.9914 25.2739C49.3837 26.7613 49.2252 28.3977 49.5359 29.9762C49.8467 31.5548 50.6127 33.0046 51.7372 34.1424C52.8616 35.2802 54.294 36.0548 55.8533 36.3684C57.4125 36.682 59.0286 36.5205 60.4972 35.9042C61.9657 35.2879 63.2209 34.2446 64.1039 32.9062C64.9869 31.5677 65.4581 29.9942 65.458 28.3846C65.4586 27.3155 65.251 26.2567 64.8472 25.2689C64.4433 24.2811 63.8511 23.3836 63.1044 22.6277C62.3577 21.8719 61.4711 21.2725 60.4954 20.8638C59.5197 20.4551 58.474 20.2452 57.4181 20.2461H57.4148Z" fill="#0D566C"/>
<path d="M57.4148 40.7227C55.8251 40.7236 54.2714 41.2017 52.95 42.0967C51.6287 42.9916 50.5991 44.2631 49.9914 45.7505C49.3837 47.2378 49.2252 48.8742 49.5359 50.4528C49.8467 52.0313 50.6127 53.4811 51.7372 54.6189C52.8616 55.7567 54.294 56.5314 55.8533 56.845C57.4125 57.1586 59.0286 56.997 60.4972 56.3808C61.9657 55.7645 63.2209 54.7212 64.1039 53.3827C64.9869 52.0443 65.4581 50.4707 65.458 48.8611C65.4586 47.792 65.251 46.7333 64.8472 45.7455C64.4433 44.7577 63.8511 43.8602 63.1044 43.1043C62.3577 42.3484 61.4711 41.749 60.4954 41.3403C59.5197 40.9317 58.474 40.7218 57.4181 40.7227H57.4148Z" fill="#0D566C"/>
<path d="M38.034 20.2461C36.4443 20.247 34.8905 20.7252 33.5692 21.6201C32.2478 22.515 31.2182 23.7865 30.6105 25.2739C30.0028 26.7613 29.8443 28.3977 30.1551 29.9762C30.4658 31.5548 31.2318 33.0046 32.3563 34.1424C33.4808 35.2802 34.9132 36.0548 36.4724 36.3684C38.0317 36.682 39.6477 36.5205 41.1163 35.9042C42.5849 35.2879 43.84 34.2446 44.723 32.9062C45.606 31.5677 46.0773 29.9942 46.0771 28.3846C46.0777 27.3155 45.8702 26.2567 45.4663 25.2689C45.0625 24.2811 44.4703 23.3836 43.7235 22.6277C42.9768 21.8719 42.0903 21.2725 41.1146 20.8638C40.1389 20.4551 39.0932 20.2452 38.0373 20.2461H38.034Z" fill="#0D566C"/>
<path d="M38.034 40.7227C36.4443 40.7236 34.8905 41.2017 33.5692 42.0967C32.2478 42.9916 31.2182 44.2631 30.6105 45.7505C30.0028 47.2378 29.8443 48.8742 30.1551 50.4528C30.4658 52.0313 31.2318 53.4811 32.3563 54.6189C33.4808 55.7567 34.9132 56.5314 36.4724 56.845C38.0317 57.1586 39.6477 56.997 41.1163 56.3808C42.5849 55.7645 43.84 54.7212 44.723 53.3827C45.606 52.0443 46.0773 50.4707 46.0771 48.8611C46.0777 47.792 45.8702 46.7333 45.4663 45.7455C45.0625 44.7577 44.4703 43.8602 43.7235 43.1043C42.9768 42.3484 42.0903 41.749 41.1146 41.3403C40.1389 40.9317 39.0932 40.7218 38.0373 40.7227H38.034Z" fill="#0D566C"/>
</svg>
