<svg width="80" height="80" viewBox="0 0 80 80" fill="none" xmlns="http://www.w3.org/2000/svg">
<g clip-path="url(#clip0_202_54)">
<rect width="80" height="80" fill="white"/>
<path opacity="0.146" d="M30 80C46.5685 80 60 66.5685 60 50C60 33.4315 46.5685 20 30 20C13.4315 20 0 33.4315 0 50C0 66.5685 13.4315 80 30 80Z" fill="#0D566C"/>
<path d="M51.2362 41.2387L41.704 48.6861C40.9961 49.2553 40.5408 50.0803 40.4364 50.9827C40.3321 51.885 40.5871 52.7922 41.1463 53.508C41.7056 54.2238 42.5241 54.6907 43.4249 54.8077C44.3257 54.9248 45.2363 54.6825 45.9599 54.1334L55.4921 46.6861L51.2362 41.2387ZM60.0455 49.7068L36.6381 19.7467C36.356 19.3856 36.2288 18.9272 36.2846 18.4724C36.3403 18.0175 36.5744 17.6034 36.9355 17.3211L39.6594 15.1929C40.0206 14.9107 40.4791 14.7836 40.9341 14.8394C41.3891 14.8953 41.8032 15.1296 42.0854 15.4908L43.1495 16.8528L45.8729 14.725C49.0126 12.2728 52.9028 10.9801 56.8857 11.0653C60.8686 11.1505 64.6999 12.6085 67.7318 15.1927L76.1756 8.5957L80.4298 14.0409L71.9861 20.6379C73.7607 24.2049 74.2491 28.2753 73.3686 32.1609C72.4882 36.0465 70.2929 39.5088 67.1539 41.9623L64.43 44.0905L65.4941 45.4525C65.7763 45.8137 65.9034 46.2722 65.8476 46.7272C65.7917 47.1822 65.5574 47.5963 65.1962 47.8785L62.4722 50.0067C62.2933 50.1464 62.0887 50.2494 61.8699 50.31C61.6512 50.3706 61.4227 50.3875 61.1974 50.3597C60.9721 50.332 60.7545 50.2601 60.557 50.1483C60.3595 50.0364 60.186 49.8868 60.0463 49.7079L60.0455 49.7068ZM42.7243 30.3441L33.1922 37.7914C32.4686 38.3405 31.5579 38.5828 30.6571 38.4657C29.7563 38.3487 28.9378 37.8818 28.3786 37.166C27.8193 36.4502 27.5643 35.543 27.6687 34.6407C27.773 33.7383 28.2284 32.9133 28.9362 32.3441L38.4684 24.8967L42.7243 30.3441Z" fill="#0D566C"/>
</g>
<defs>
<clipPath id="clip0_202_54">
<rect width="80" height="80" fill="white"/>
</clipPath>
</defs>
</svg>
