<svg xmlns="http://www.w3.org/2000/svg" width="32.985" height="28.5" viewBox="0 0 32.985 28.5">
  <g id="Group_68" data-name="Group 68" transform="translate(-221.555 -120.5)">
    <path id="Icon_material-visibility-off" data-name="Icon material-visibility-off" d="M3,31.095l3.42-3.42.69-.69A17.706,17.706,0,0,1,1.5,19.5,17.732,17.732,0,0,1,24.57,9.51l.63-.63,4.4-4.38L31.5,6.405,4.905,33Zm8.3-8.3,2.325-2.325a4.232,4.232,0,0,1-.12-.975A4.494,4.494,0,0,1,18,15a4.232,4.232,0,0,1,.975.12L21.3,12.8a7.451,7.451,0,0,0-10,10Z" transform="translate(220.055 116)" fill="#2271b1"/>
    <path id="Icon_material-visibility-off-2" data-name="Icon material-visibility-off" d="M18,27a7.5,7.5,0,0,0,7.5-7.5,7.28,7.28,0,0,0-.54-2.745l4.38-4.38A17.726,17.726,0,0,1,34.485,19.5a17.74,17.74,0,0,1-16.5,11.25,17.468,17.468,0,0,1-5.97-1.05l3.24-3.24A7.28,7.28,0,0,0,18,27Zm-.24-3.03,4.725-4.725.03.24a4.494,4.494,0,0,1-4.5,4.5l-.255-.015Z" transform="translate(220.055 116)" fill="#2271b1" opacity="0.39"/>
  </g>
</svg>
